<svg width="24" height="24" viewBox="0 0 24 24" fill="none" xmlns="http://www.w3.org/2000/svg">
<path d="M8.88672 21.3333C9.71515 21.3333 10.3867 20.6618 10.3867 19.8333C10.3867 19.0049 9.71515 18.3333 8.88672 18.3333C8.05829 18.3333 7.38672 19.0049 7.38672 19.8333C7.38672 20.6618 8.05829 21.3333 8.88672 21.3333Z" fill="#359740"/>
<path d="M18 21.3333C18.8284 21.3333 19.5 20.6618 19.5 19.8333C19.5 19.0049 18.8284 18.3333 18 18.3333C17.1716 18.3333 16.5 19.0049 16.5 19.8333C16.5 20.6618 17.1716 21.3333 18 21.3333Z" fill="#359740"/>
<path d="M22.0537 3.58C21.9916 3.50353 21.9134 3.44174 21.8247 3.39909C21.7359 3.35644 21.6388 3.33399 21.5403 3.33333H7.66032L8.09365 4.66667H20.667L18.887 12.6667H8.88698L5.84032 3.02C5.80736 2.91764 5.75014 2.82477 5.67352 2.74931C5.5969 2.67386 5.50317 2.61806 5.40032 2.58667L2.66698 1.74667C2.58294 1.72084 2.49463 1.71182 2.4071 1.72012C2.31956 1.72843 2.23453 1.75389 2.15683 1.79506C1.99993 1.8782 1.88248 2.02026 1.83032 2.19C1.77816 2.35974 1.79556 2.54325 1.87871 2.70015C1.96185 2.85706 2.10391 2.97451 2.27365 3.02667L4.66698 3.76L7.72698 13.4267L6.63365 14.32L6.54698 14.4067C6.27654 14.7183 6.12325 15.1145 6.11352 15.5271C6.10378 15.9396 6.23821 16.3426 6.49365 16.6667C6.67536 16.8876 6.90626 17.063 7.16788 17.1788C7.4295 17.2945 7.71458 17.3475 8.00032 17.3333H19.127C19.3038 17.3333 19.4734 17.2631 19.5984 17.1381C19.7234 17.013 19.7937 16.8435 19.7937 16.6667C19.7937 16.4899 19.7234 16.3203 19.5984 16.1953C19.4734 16.0702 19.3038 16 19.127 16H7.89365C7.81688 15.9974 7.74209 15.975 7.67649 15.935C7.61089 15.8951 7.55671 15.8389 7.51918 15.7718C7.48165 15.7048 7.46204 15.6293 7.46224 15.5524C7.46243 15.4756 7.48244 15.4002 7.52032 15.3333L9.12698 14H19.4203C19.5744 14.0038 19.7251 13.954 19.8466 13.8592C19.9682 13.7644 20.0531 13.6304 20.087 13.48L22.2003 4.14667C22.2206 4.04728 22.2179 3.94458 22.1925 3.84638C22.1671 3.74818 22.1196 3.65707 22.0537 3.58Z" fill="#359740"/>
</svg>
